<?xml version="1.0" encoding="UTF-8"?>
<svg id="Layer_2" data-name="Layer 2" xmlns="http://www.w3.org/2000/svg" viewBox="0 0 51.2 51.2">
  <defs>
    <style>
      .cls-1 {
        fill: #020617;
      }
    </style>
  </defs>
  <g id="Layer_1-2" data-name="Layer 1">
    <g>
      <rect width="51.2" height="51.2" rx="10.24" ry="10.24" fill="#e2e8f0"/>
      <g>
        <path class="cls-1" d="M13.85,19.57c-1.2,0-2.07-.27-2.62-.82-.55-.55-.82-1.25-.82-2.1v-.88c0-.85.27-1.55.82-2.1.55-.55,1.42-.82,2.62-.82s2.07.27,2.62.82c.55.55.82,1.25.82,2.1v.88c0,.85-.27,1.55-.82,2.1-.55.55-1.42.82-2.62.82ZM10.89,21.81h5.92v17.31h-5.92v-17.31Z"/>
        <path class="cls-1" d="M39.15,16.44h-12.68l-.6,8.84h.32c.27-.67.57-1.27.9-1.82.33-.55.73-1.01,1.18-1.4.45-.39,1-.69,1.64-.9.64-.21,1.4-.32,2.28-.32,1.2,0,2.32.2,3.36.6,1.04.4,1.95.98,2.72,1.74.77.76,1.39,1.69,1.84,2.8.45,1.11.68,2.35.68,3.74s-.23,2.73-.7,3.94c-.47,1.21-1.16,2.26-2.08,3.14-.92.88-2.05,1.57-3.38,2.06-1.33.49-2.85.74-4.56.74-1.36,0-2.56-.15-3.6-.44s-1.96-.69-2.76-1.18c-.8-.49-1.49-1.06-2.08-1.7-.59-.64-1.09-1.32-1.52-2.04l4.36-3.44c.61,1.09,1.35,2.02,2.2,2.78.85.76,2,1.14,3.44,1.14s2.53-.41,3.26-1.24c.73-.83,1.1-1.92,1.1-3.28v-.32c0-1.28-.37-2.29-1.12-3.04-.75-.75-1.77-1.12-3.08-1.12-1.09,0-1.99.22-2.7.66-.71.44-1.25.87-1.62,1.3l-4.92-.68,1.04-15.8h17.08v5.24Z"/>
      </g>
    </g>
  </g>
</svg>
